<svg height="32" viewBox="0 0 128 32" width="128" xmlns="http://www.w3.org/2000/svg"><path d="m14.01 12.12-8.99 1.28-3.79-1.25 11.61-1.65z" fill="#00897f"/><path d="m18.07 0-.01 3.99-4.05 8.13-1.17-1.62z" fill="#00a198"/><path d="m17.99 24.51 8.02 4.25 2.34 3.24-10.37-5.5z" fill="#00897f"/><path d="m28.35 32-2.34-3.24h.01l-1.51-8.95 1.9.62z" fill="#00a198"/><path d="m11.5 19.76-1.9.61-8.37-8.22 3.79 1.25z" fill="#00a198"/><path d="m18.07 0 5.16 10.54-1.18 1.61-3.99-8.16z" fill="#00897f"/><path d="m17.99 24.51-.01 1.99-10.4 5.43 2.36-3.22z" fill="#00a198"/><path d="m11.5 19.76-1.56 8.95-2.36 3.22 2.02-11.56z" fill="#00897f"/><path d="m22.6 16.79-3.16-.47-1.41-2.87-1.43 2.86-3.17.45 2.28 2.24-.55 3.15 2.84-1.48 2.83 1.5-.53-3.15 2.3-2.22z" fill="#fab032"/><path d="m23.64 15.37s9.74-8.67 35.13-2.49c0 0-3.58-2.97-13.43-4.5-14.27-2.21-24.07 2.16-24.07 2.16z" fill="#00897f"/><g fill="#fab032"><path d="m23.94 15.89s10.92-8.82 34.83-2.31c0 0-23.25-4.42-34.24 3.55l-.58-1.24z"/><path d="m36.58 23.77h-3.96l-1.24 3.05h-.67l3.92-9.58 3.86 9.58h-.67zm-.22-.56-1.74-4.41-1.77 4.41z"/><path d="m45.71 18.08h-3.85v3.38h3.77v.56h-3.77v4.25h3.85v.56h-4.46v-9.3h4.46v.56z"/><path d="m48.32 23.84-2.11-2.71h.68l1.8 2.34 1.77-2.34h.68l-2.06 2.71 2.29 2.98h-.68l-1.99-2.62-1.99 2.62h-.68l2.3-2.98z"/><path d="m56.01 21.14h.56v5.69h-.56v-1.02c-.57.88-1.48 1.17-2.22 1.17-1.49 0-2.78-1.13-2.78-3 0-1.76 1.12-2.97 2.78-2.97.89 0 1.67.35 2.22 1.12zm-4.41 2.8c0 1.28.79 2.51 2.23 2.51s2.2-1.2 2.2-2.51c0-1.69-1.24-2.4-2.22-2.4-1.13 0-2.22.85-2.22 2.4z"/><path d="m57.18 21.14h.56v.71c.43-.74 1.09-.84 1.48-.84 1.12 0 1.48.74 1.59 1.03.32-.68.93-1.03 1.69-1.03.63 0 1.03.22 1.28.47.46.46.49 1.09.49 1.55v3.79h-.56v-3.79c0-.38-.03-.85-.33-1.17-.25-.27-.59-.32-.85-.32-1.51 0-1.52 1.51-1.52 1.85v3.43h-.56v-3.65c0-.36-.03-1.63-1.25-1.63-.99 0-1.45.86-1.45 1.99v3.29h-.56v-5.69z"/><path d="m65.44 30.03h-.56v-8.9h.56v.99c.54-.74 1.32-1.12 2.23-1.12 1.71 0 2.76 1.28 2.76 2.93s-1.06 3.04-2.79 3.04c-1.41 0-2.04-.89-2.2-1.17zm4.41-6.09c0-1.56-1.03-2.4-2.2-2.4s-2.23.79-2.23 2.37c0 1.42.78 2.54 2.22 2.54s2.22-1.12 2.22-2.51z"/><path d="m71.52 16.66v10.17h-.56v-10.17z"/><path d="m72.92 24.05c0 1.45 1.06 2.4 2.26 2.4.92 0 1.62-.54 1.98-1.3l.47.28c-.34.64-1.09 1.55-2.5 1.55-1.77 0-2.8-1.31-2.8-2.97 0-1.98 1.37-3 2.76-3 1.54 0 2.69 1.23 2.69 3.04h-4.87zm4.28-.53c-.14-1.13-.98-1.98-2.11-1.98s-1.98.88-2.13 1.98z"/><path d="m89.82 19.42c-.8-.93-1.94-1.46-3.14-1.46-2.38 0-4.17 1.91-4.17 4.27 0 2.76 2.3 4.2 4.18 4.2.93 0 2.18-.38 3.12-1.41v.81c-.95.84-2.09 1.16-3.1 1.16-2.79 0-4.85-2.19-4.85-4.78s2.15-4.8 4.83-4.8c1.77 0 2.85.95 3.12 1.21v.81z"/><path d="m96.35 24c0 1.69-1.3 2.98-2.98 2.98s-2.98-1.3-2.98-2.98 1.3-2.98 2.98-2.98 2.98 1.3 2.98 2.98zm-.58 0c0-1.38-1.03-2.45-2.4-2.45s-2.4 1.07-2.4 2.45 1.03 2.45 2.4 2.45 2.4-1.07 2.4-2.45z"/><path d="m96.89 21.14h.56v.71c.43-.74 1.09-.84 1.48-.84 1.12 0 1.48.74 1.59 1.03.32-.68.94-1.03 1.69-1.03.63 0 1.03.22 1.28.47.46.46.49 1.09.49 1.55v3.79h-.56v-3.79c0-.38-.03-.85-.34-1.17-.25-.27-.59-.32-.85-.32-1.51 0-1.52 1.51-1.52 1.85v3.43h-.56v-3.65c0-.36-.03-1.63-1.26-1.63-.99 0-1.45.86-1.45 1.99v3.29h-.56v-5.69z"/><path d="m105.15 30.03h-.56v-8.9h.56v.99c.54-.74 1.32-1.12 2.23-1.12 1.71 0 2.76 1.28 2.76 2.93s-1.06 3.04-2.79 3.04c-1.41 0-2.04-.89-2.2-1.17zm4.41-6.09c0-1.56-1.03-2.4-2.2-2.4s-2.23.79-2.23 2.37c0 1.42.78 2.54 2.22 2.54s2.22-1.12 2.22-2.51z"/><path d="m115.58 21.14h.56v5.69h-.56v-1.02c-.57.88-1.48 1.17-2.22 1.17-1.49 0-2.78-1.13-2.78-3 0-1.76 1.12-2.97 2.78-2.97.89 0 1.67.35 2.22 1.12zm-4.41 2.8c0 1.28.79 2.51 2.23 2.51s2.2-1.2 2.2-2.51c0-1.69-1.24-2.4-2.22-2.4-1.13 0-2.22.85-2.22 2.4z"/><path d="m116.75 21.14h.56v.89c.27-.47.78-1.02 1.74-1.02 1.02 0 1.45.6 1.57.8.25.4.28.93.28 1.44v3.58h-.56v-3.58c0-.39-.01-.82-.22-1.14-.12-.21-.43-.56-1.12-.56-.78 0-1.19.42-1.39.79-.25.45-.31.98-.31 1.53v2.96h-.56v-5.69z"/><path d="m123.62 26.92-2.71-5.79h.64l2.38 5.06 2.08-5.06h.64l-3.74 8.9h-.64l1.34-3.11z"/></g></svg>